{"title":"Battle Los Angeles 2011 XViD AC3 BRRip - DTRG - SAFCuk009","uid":6397652,"size":2050116454,"categoryP":"video","categoryS":"movies","magnet":"?xt=urn:btih:8478b4e8211edcdce76183834fdd1a10eed9c717&amp;dn=Battle+Los+Angeles+2011+XViD+AC3+BRRip+-+DTRG+-+SAFCuk009&amp;tr=udp%3A%2F%2Ftracker.openbittorrent.com%3A80&amp;tr=udp%3A%2F%2Fopen.demonii.com%3A1337&amp;tr=udp%3A%2F%2Ftracker.coppersurfer.tk%3A6969&amp;tr=udp%3A%2F%2Fexodus.desync.com%3A6969","seeders":0,"leechers":0,"uploader":"SAFCukO09","files":2,"time":1305564854,"description":"Overall bit rate : 2 332 Kbps\nWriting library : VirtualDub build 32593/release\n\nVideo\nID : 0\nFormat : MPEG-4 Visual\nFormat profile : Advanced Simple@L5\nFormat settings, BVOP : 2\nFormat settings, QPel : No\nFormat settings, GMC : No warppoints\nFormat settings, Matrix : Default (MPEG)\nMuxing mode : Packed bitstream\nCodec ID : XVID\nCodec ID/Hint : XviD\nDuration : 1h 56mn\nBit rate : 1 875 Kbps\nWidth : 720 pixels\nHeight : 304 pixels\nDisplay aspect ratio : 2.35:1\nFrame rate : 23.976 fps\nColor space : YUV\nChroma subsampling : 4:2:0\nBit depth : 8 bits\nScan type : Progressive\nCompression mode : Lossy\nBits/(Pixel*Frame) : 0.357\nStream size : 1.52 GiB (80%)\nWriting library : XviD 1.2.1 (UTC 2008-12-04)\n\nAudio\nID : 1\nFormat : AC-3\nFormat/Info : Audio Coding 3\nMode extension : CM (complete main)\nCodec ID : 2000\nDuration : 1h 56mn\nBit rate mode : Constant\nBit rate : 448 Kbps\nChannel(s) : 6 channels\nChannel positions : Front: L C R, Side: L R, LFE\nSampling rate : 48.0 KHz\nBit depth : 16 bits\nCompression mode : Lossy\nStream size : 372 MiB (19%)\nAlignment : Aligned on interleaves\nInterleave, duration : 42 ms (1.00 video frame)\nInterleave, preload duration : 512 ms\n\n\n\n &lt;a href=&quot;\nhttp://www.imdb.com/title/tt1217613/&quot; rel=&quot;nofollow&quot; target=&quot;_NEW&quot;&gt;\nhttp://www.imdb.com/title/tt1217613/&lt;/a&gt;\n\n\n\n\n\n\n\nUsers: 6.0/10 (30,975 votes) 504 reviews | Critics: 256 reviews Metascore: 37/100 (based on 35 reviews from Metacritic.com)\n\nA Marine Staff Sergeant who has just had his retirement approved goes back into the line of duty in order to assist a 2nd Lieutenant and his platoon as they fight to reclaim the city of Los Angeles from alien invaders.\nDirector:\nJonathan Liebesman\nWriter:\nChristopher Bertolini\nStars:\nAaron Eckhart, Michelle Rodriguez and Bridget\n\n\n\n\n\n\n\n\n\n\n\n\n\n\n\nBattle Los Angeles 2011 720p BluRay x264-BLA ....... Thanks\n\n\n\n\nGreetz to IMAGiNE,Flawl3ss,DiLLoN,BDK,NOiR,TOXiCiNK,THC,Ez,Rx,Boobyblue,TaRiQ786,LKRG,CrEwSaDe\n","torrent":{"xt":"urn:btih:8478b4e8211edcdce76183834fdd1a10eed9c717","amp;dn":"Battle+Los+Angeles+2011+XViD+AC3+BRRip+-+DTRG+-+SAFCuk009","amp;tr":["udp%3A%2F%2Ftracker.openbittorrent.com%3A80","udp%3A%2F%2Fopen.demonii.com%3A1337","udp%3A%2F%2Ftracker.coppersurfer.tk%3A6969","udp%3A%2F%2Fexodus.desync.com%3A6969"],"infoHash":"8478b4e8211edcdce76183834fdd1a10eed9c717","infoHashBuffer":{"type":"Buffer","data":[132,120,180,232,33,30,220,220,231,97,131,131,79,221,26,16,238,217,199,23]},"announce":[],"urlList":[]}}